<svg xmlns="http://www.w3.org/2000/svg" xmlns:xlink="http://www.w3.org/1999/xlink" width="500" zoomAndPan="magnify" viewBox="0 0 375 374.999991" height="500" preserveAspectRatio="xMidYMid meet" version="1.0"><defs><clipPath id="id1"><path d="M 6.542969 7.296875 L 368.332031 7.296875 L 368.332031 367.945312 L 6.542969 367.945312 Z M 6.542969 7.296875 " clip-rule="nonzero"/></clipPath></defs><g clip-path="url(#id1)"><path fill="rgb(0%, 50.19989%, 21.569824%)" d="M 35.984375 104.800781 C 60.773438 60.648438 102.75 28.859375 151.183594 17.585938 C 162.28125 15.535156 173.550781 14.480469 184.660156 14.480469 C 261.035156 14.480469 328.613281 63.890625 352.824219 137.417969 C 367.300781 181.402344 362.355469 228.640625 338.910156 270.433594 C 314.109375 314.605469 272.105469 346.40625 223.652344 357.675781 C 211.824219 360.429688 199.714844 361.824219 187.644531 361.824219 C 114.195312 361.824219 46.113281 310.824219 22.066406 237.796875 C 7.59375 193.8125 12.539062 146.585938 35.984375 104.800781 Z M 366.554688 158.367188 C 354.601562 72.246094 276.589844 7.289062 185.101562 7.289062 C 173.914062 7.289062 162.707031 8.3125 151.773438 10.316406 L 151.074219 10.453125 C 56.445312 32.574219 -4.910156 121.300781 8.339844 216.828125 C 20.300781 302.980469 98.3125 367.945312 189.800781 367.945312 C 201.117188 367.945312 212.464844 366.914062 223.515625 364.859375 C 315.796875 347.742188 379.980469 255.113281 366.554688 158.367188 " fill-opacity="1" fill-rule="nonzero"/></g><path fill="rgb(0%, 50.19989%, 21.569824%)" d="M 37.847656 115.167969 C 37.886719 115.207031 37.042969 116.277344 35.070312 117.761719 C 33.136719 119.296875 33.335938 119.925781 33.699219 119.71875 C 34.0625 119.511719 34.082031 120.25 34.570312 120.660156 C 35.128906 120.898438 35.574219 120.535156 36.023438 120.742188 C 36.542969 120.78125 36.867188 119.828125 37.632812 119.257812 C 38.332031 118.855469 37.503906 120.308594 37.328125 121.105469 C 37.054688 122.078125 37.230469 122.324219 37.742188 122.371094 C 38.28125 122.410156 38.015625 121.949219 38.488281 121.085938 C 38.988281 120.230469 38.632812 119.53125 38.792969 118.519531 C 38.917969 117.496094 39.214844 119.628906 40.144531 119.136719 C 41.117188 118.519531 40.949219 118.265625 41.460938 116.90625 C 41.972656 115.511719 42.933594 115.246094 43.71875 114.765625 C 44.511719 114.226562 44.238281 113.753906 43.746094 113.3125 C 43.257812 112.890625 42.992188 114.570312 41.539062 114.941406 C 40.125 115.34375 41.410156 113.242188 41.46875 112.339844 C 41.519531 111.445312 42.296875 111.285156 43.679688 109.597656 C 45.238281 107.660156 43.679688 108.878906 42.324219 109.636719 C 41.058594 110.292969 40.5 111.296875 39.96875 112.339844 C 39.507812 113.214844 37.847656 115.167969 37.847656 115.167969 Z M 23.875 130.960938 C 23.875 130.960938 22.527344 131.992188 22.1875 132.796875 C 21.851562 133.613281 21.027344 134.644531 21.085938 134.84375 C 21.085938 135.207031 21.222656 135.421875 21.714844 135.019531 C 22.207031 134.636719 22.527344 133.820312 23.058594 133.445312 C 23.550781 133.242188 23.394531 131.921875 23.902344 131.53125 C 24.402344 131.148438 24.570312 130.46875 25.082031 130.105469 C 25.503906 129.890625 26.101562 129.546875 26.632812 128.996094 C 27.101562 128.621094 27.476562 128.21875 27.5625 127.316406 C 27.601562 126.625 28.085938 125.164062 27.347656 125.976562 C 26.554688 126.980469 26.328125 126.707031 25.992188 127.128906 C 25.570312 127.71875 25.414062 128.574219 25.011719 129.152344 C 24.601562 129.75 24.660156 129.957031 23.875 130.960938 Z M 23.097656 125.308594 C 23.097656 125.308594 22.265625 125.9375 21.929688 126.585938 C 21.539062 127.394531 20.929688 128.109375 20.585938 129.300781 C 20.261719 130.5 19.839844 131.097656 19.75 132.199219 C 19.683594 133.308594 19.410156 134.3125 19.691406 134.035156 C 19.976562 133.75 20.28125 132.738281 20.917969 131.273438 C 21.578125 129.820312 21.578125 129.632812 21.960938 128.453125 C 22.390625 127.109375 22.636719 126.65625 22.84375 126.339844 C 22.960938 126.195312 23.246094 124.621094 23.214844 125.359375 C 23.195312 126.097656 23.128906 127.578125 22.824219 128.574219 C 22.5 129.585938 22.726562 130.035156 22.921875 129.917969 C 23.117188 129.792969 23.519531 129.566406 23.894531 128.394531 C 24.199219 127.394531 24.207031 126.667969 24.679688 126.261719 C 25.148438 125.898438 24.335938 125.96875 25.492188 125.28125 C 26.640625 124.777344 26.777344 124.289062 26.632812 123.855469 C 26.484375 123.433594 26.640625 122.746094 26.050781 123.441406 C 25.472656 124.148438 25.0625 124.367188 24.726562 124.632812 C 24.472656 124.699219 24.246094 124.425781 23.914062 124.679688 C 23.597656 124.957031 23.089844 125.671875 23.402344 124.867188 C 23.738281 124.042969 23.84375 123.90625 24.128906 123.277344 C 24.382812 122.609375 24.523438 122.84375 25.238281 121.605469 C 26.03125 120.230469 26.238281 120.503906 26.160156 119.550781 C 26.121094 118.570312 25.730469 119.160156 25.53125 119.464844 C 25.347656 119.777344 24.34375 120.691406 24.058594 121.515625 C 23.777344 122.371094 23.375 123.148438 23.441406 123.757812 C 23.5 124.335938 23.226562 125.003906 23.226562 125.003906 Z M 9.644531 178.121094 C 9.683594 178.070312 9.722656 178.042969 9.78125 178.011719 C 10.300781 177.855469 10.574219 178.03125 10.488281 179.644531 C 10.429688 181.058594 10.585938 181.253906 10.125 182.667969 C 9.703125 184.242188 9.546875 186.050781 9.722656 187.839844 C 9.917969 189.609375 9.910156 187.839844 10.613281 187.996094 C 11.378906 188.171875 11.046875 189.058594 11.46875 190.117188 C 11.902344 191.335938 11.617188 191.886719 11.695312 194.167969 C 11.78125 196.300781 11.429688 196.851562 11.714844 198.421875 C 12 199.835938 12.714844 199.777344 13.304688 200.96875 C 13.894531 201.960938 14.433594 198.246094 15.140625 199.238281 C 15.855469 200.238281 15.492188 202.15625 16.269531 200.367188 C 17.101562 198.414062 17.40625 194.953125 18.25 194.421875 C 19.125 193.851562 19.230469 192.996094 19.507812 194.863281 C 19.761719 196.535156 19.476562 197.222656 19.527344 198.578125 C 19.574219 200.113281 19.585938 201.292969 19.820312 201.429688 C 20.027344 201.417969 20.242188 201.066406 20.015625 200.230469 C 19.820312 199.40625 19.75 199.0625 19.742188 197.558594 C 19.75 196.183594 20.417969 195.984375 21.136719 194.945312 C 21.882812 194.050781 21.539062 193.746094 22.34375 194.050781 C 23.136719 194.363281 22.609375 195.699219 23.492188 195.996094 C 24.402344 196.40625 25.894531 195.199219 27.113281 195.445312 C 28.367188 195.542969 31.65625 199.90625 34.21875 203.433594 C 36.925781 207.148438 42.71875 207.855469 44.710938 209.171875 C 46.78125 210.734375 48.792969 211.984375 50.804688 213.734375 C 52.914062 215.71875 61.84375 227.390625 64.277344 227.816406 C 66.722656 228.089844 66.378906 227.117188 69.578125 231.410156 C 72.777344 235.558594 73.621094 235.460938 73.289062 238.476562 C 73.042969 241.5625 72.660156 243.144531 71.21875 247.832031 C 69.902344 252.5 71.824219 257.679688 72.023438 259.191406 C 72.148438 260.546875 73.308594 263.261719 72.53125 266.484375 C 71.785156 269.628906 69.5 268.234375 68.507812 269.253906 C 67.46875 270.179688 66.371094 276.09375 66.066406 281.105469 C 65.9375 285.980469 67.351562 289.164062 65.476562 290.734375 C 63.710938 292.238281 61.648438 291.394531 62.964844 292.664062 C 64.398438 294.007812 64.375 292.742188 65.90625 294.214844 C 67.558594 295.777344 67.449219 295.679688 66.957031 296.574219 C 66.46875 297.457031 67.144531 299.785156 65.996094 299.90625 C 64.996094 300.140625 62.542969 298.507812 62.71875 299.746094 C 62.945312 300.898438 62.53125 300.820312 63.835938 302.164062 C 65.140625 303.472656 66.007812 304.996094 66.007812 305.488281 C 66.125 306.097656 65.25 305.535156 65.945312 306.488281 C 66.792969 307.597656 67.398438 307.472656 67.371094 308.21875 C 67.359375 308.976562 67.015625 308.582031 67.15625 309.179688 C 67.164062 309.664062 67.195312 310.105469 68.234375 311.058594 C 69.253906 312 71.019531 312.101562 71.738281 313.378906 C 72.453125 314.625 73.90625 317.417969 73.71875 317.652344 C 73.640625 317.984375 73.355469 318.339844 74.621094 319.019531 C 75.722656 319.570312 75.546875 319.507812 75.839844 319.972656 C 76.015625 320.34375 76.113281 320.765625 76.113281 320.765625 C 76.113281 320.765625 77.039062 320.460938 78.648438 321.789062 C 80.246094 323.105469 80.609375 323.222656 80.609375 323.222656 C 80.609375 323.222656 81.867188 324.15625 81.699219 324.394531 C 81.503906 324.640625 81.285156 324.34375 80.558594 324.15625 C 79.824219 323.941406 77.378906 323.078125 76.742188 322.449219 C 76.261719 321.957031 76.554688 321.859375 76.359375 321.5625 C 76.300781 321.355469 76.171875 321.238281 76.171875 321.238281 C 76.171875 321.238281 75.691406 320.6875 75.367188 320.828125 C 75.035156 320.925781 75.386719 321.355469 74.554688 320.972656 C 73.710938 320.582031 73.160156 320.128906 72.238281 319.34375 C 71.304688 318.527344 71.324219 318.488281 70 317.328125 C 68.695312 316.167969 66.878906 314.988281 66.28125 314.113281 C 65.683594 313.199219 64.886719 312.246094 64.113281 311.511719 C 63.238281 310.675781 61.492188 309.878906 61.519531 308.894531 C 61.558594 307.863281 61.175781 307 60.273438 305.703125 C 59.507812 304.503906 57.210938 302.8125 55.867188 301.191406 C 54.535156 299.570312 53.160156 297.980469 52.128906 296.5625 C 51.117188 295.140625 49.753906 293.980469 50.421875 293.027344 C 51.039062 291.875 46.867188 287.425781 46.867188 287.425781 C 46.867188 287.425781 42.933594 280.859375 41.863281 278.667969 C 40.824219 276.488281 39.546875 273.410156 38.164062 269.84375 C 36.75 266.128906 35.855469 263.515625 33.777344 259.96875 C 31.6875 256.214844 27.542969 253.109375 26.90625 252.410156 C 26.269531 251.722656 23.855469 247.605469 22.871094 244.597656 C 21.921875 241.570312 21.773438 241.277344 21.15625 239.988281 C 20.617188 238.851562 18.113281 234.269531 17.847656 233.070312 C 17.59375 231.851562 17.464844 228.609375 16.933594 227.648438 C 16.367188 226.515625 15.894531 226.625 15.875 224.265625 C 15.90625 221.917969 16.167969 220.257812 16.492188 217.890625 C 16.875 215.519531 16.769531 214.667969 16.894531 213.917969 C 16.992188 213.054688 16.464844 209.074219 15.964844 205.792969 C 15.492188 202.539062 14.875 201.714844 14.550781 201.742188 C 14.226562 201.578125 14.15625 202.648438 13.421875 203.082031 C 12.753906 203.660156 12.285156 203.34375 11.625 201.625 C 10.988281 199.71875 10.78125 196.703125 10.574219 195.828125 C 10.390625 194.945312 10.4375 194.058594 9.867188 193.195312 C 9.664062 192.839844 9.554688 192.859375 9.476562 192.988281 C 9.308594 187.996094 9.378906 183.042969 9.644531 178.121094 Z M 11.378906 160.953125 C 11.351562 161.121094 11.339844 161.265625 11.300781 161.382812 Z M 53.199219 102.058594 C 53.179688 102.050781 50.519531 104.152344 50.539062 104.164062 C 50.480469 104.320312 48.703125 106.472656 48.28125 107.128906 C 47.851562 107.816406 46.730469 108.859375 46.710938 109.214844 C 46.625 109.714844 47.183594 110.195312 47.710938 109.753906 C 48.144531 109.449219 49.195312 108.210938 49.3125 108.820312 C 49.519531 109.3125 49.921875 110.058594 50.371094 110.324219 C 50.765625 110.71875 50.726562 110.332031 51.785156 109.488281 C 52.902344 108.507812 53.179688 108.476562 53.425781 106.796875 C 53.699219 105.136719 53.886719 105.8125 53.1875 105.214844 C 52.433594 104.753906 52.058594 104.898438 52.539062 104.074219 C 52.914062 103.375 54.335938 101.460938 53.199219 102.058594 Z M 50.785156 76.507812 C 50.785156 76.507812 49.261719 78.003906 48.398438 78.445312 C 47.554688 78.925781 46.828125 79.910156 46.289062 80.402344 C 45.632812 81.039062 42.992188 83.0625 43.050781 83.75 C 43.019531 84.597656 42.992188 85.019531 43.5625 84.558594 C 44.140625 84.085938 43.925781 84.585938 44.492188 84.332031 C 44.972656 84.242188 46.0625 83.09375 47.378906 81.441406 C 48.695312 79.792969 49.644531 78.730469 50.46875 77.601562 C 51.292969 76.488281 50.695312 76.667969 51.273438 76.246094 C 51.882812 75.820312 51.835938 76 53.386719 74.769531 C 54.9375 73.589844 54.308594 74.179688 55.59375 72.972656 C 56.988281 71.664062 57.722656 70.445312 57.144531 70.625 C 56.566406 70.808594 56.464844 70.957031 55.320312 71.832031 C 54.082031 72.863281 53.070312 73.828125 52.550781 74.09375 C 51.933594 74.496094 51.667969 74.964844 50.785156 76.507812 Z M 59.058594 70.484375 C 59.351562 70.035156 60.265625 69.699219 61.011719 69.433594 C 61.777344 69.1875 60.285156 70.652344 59.84375 71.410156 C 59.402344 72.164062 58.902344 72.875 58.027344 73.257812 C 57.054688 73.769531 56.378906 74.347656 55.976562 74.457031 C 55.574219 74.5625 56.347656 73.628906 56.800781 72.875 C 57.371094 72 59.058594 70.484375 59.058594 70.484375 Z M 53.148438 82.777344 C 53.148438 82.777344 50.972656 83.898438 52.011719 84.046875 C 53.089844 84.214844 53.1875 83.851562 54.140625 83.535156 C 55.21875 83.082031 55.496094 83.300781 55.898438 84.242188 C 56.308594 85.1875 57.476562 84.832031 58.292969 84.214844 C 59.105469 83.59375 58.839844 83.183594 59.066406 82.277344 C 59.382812 81.277344 59.726562 80.890625 60.097656 81.433594 C 60.382812 82.082031 60.824219 81.570312 61.785156 80.882812 C 62.835938 80.058594 62.160156 78.828125 63.316406 78.515625 C 64.484375 78.230469 65.542969 77.640625 66.457031 76.914062 C 67.390625 76.203125 66.851562 75.695312 66.996094 74.722656 C 67.253906 73.609375 66.035156 74.074219 65.867188 73.667969 C 65.710938 73.304688 65.378906 72.550781 64.152344 73.464844 C 62.804688 74.515625 62.964844 73.757812 62.707031 73.304688 C 62.464844 72.84375 62.582031 72.265625 63.394531 71.636719 C 64.21875 71.015625 65.140625 69.542969 64.464844 69.609375 C 63.828125 69.730469 64.335938 69.71875 62.757812 70.808594 C 61.070312 72.046875 61.207031 71.476562 61.355469 70.90625 C 61.402344 70.515625 60.792969 70.867188 60.421875 71.910156 C 60.058594 72.972656 59.039062 73.21875 58.351562 73.992188 C 57.683594 74.769531 57.613281 75.839844 57.996094 76.382812 C 58.378906 76.953125 59.027344 77.039062 58.761719 77.90625 C 58.5 78.800781 58.300781 79.28125 56.839844 80.488281 C 55.398438 81.726562 53.589844 82.464844 53.148438 82.777344 Z M 68.527344 64.519531 C 68.527344 64.519531 68.753906 64.5 69.207031 64.226562 C 69.667969 63.960938 68.871094 64.128906 69.6875 63.242188 C 70.519531 62.398438 69.992188 63.332031 70.148438 63.734375 C 70.316406 64.148438 70.695312 64.070312 70.253906 64.570312 C 69.785156 65.082031 69.648438 65.894531 69.039062 66.230469 C 68.292969 66.683594 65.820312 67.832031 65.171875 67.4375 C 64.375 67.175781 65.28125 66.605469 65.664062 66.015625 C 66.183594 65.316406 68.527344 64.519531 68.527344 64.519531 Z M 72.207031 62.703125 C 72.53125 62.300781 72.226562 61.230469 73.847656 60.472656 C 75.605469 59.648438 75.054688 60.03125 76.164062 59.253906 C 77.421875 58.359375 78.382812 57.121094 79.578125 56.460938 C 80.941406 55.695312 82.199219 55.125 83.859375 54.242188 C 85.535156 53.355469 86.320312 52.746094 85.871094 53.800781 C 85.4375 54.859375 84.164062 55.402344 82.542969 56.609375 C 81.042969 57.699219 81.925781 57.160156 79.953125 58.734375 C 78 60.285156 77.449219 60.679688 76.300781 61.425781 C 75.269531 62.035156 72.835938 63.359375 72.207031 62.703125 Z M 88.980469 52.953125 C 88.980469 52.953125 88.480469 52.828125 89.5 51.953125 C 90.523438 51.085938 90.285156 51.34375 92.316406 50.734375 C 94.191406 50.261719 93.367188 51.097656 94.46875 50.941406 C 95.4375 50.890625 97.539062 49.59375 97.882812 49.238281 C 98.234375 48.894531 99.519531 48.128906 102.964844 46.832031 C 106.410156 45.625 105.371094 45.78125 108.34375 45.75 C 111.621094 45.644531 109.785156 46.28125 110.613281 46.195312 C 111.484375 46.054688 111.457031 46.035156 112.761719 45.445312 C 113.957031 44.945312 114.183594 44.679688 114.703125 43.941406 C 115.214844 43.207031 115.882812 43.078125 116.578125 43.058594 C 117.433594 42.941406 116.941406 43.414062 117.65625 43.804688 C 118.542969 44.140625 118.058594 43.5 120.210938 43.1875 C 122.328125 42.910156 119.875 44.386719 118.726562 44.886719 C 117.578125 45.40625 117.285156 44.816406 115.863281 45.859375 C 114.449219 46.910156 114.300781 47.285156 113.546875 47.882812 C 112.800781 48.484375 115.382812 48.335938 115.585938 49.074219 C 115.824219 49.828125 115.332031 49.90625 114.261719 50.191406 C 113.183594 50.507812 114.46875 49.9375 114.164062 49.367188 C 113.851562 48.789062 112.113281 49.535156 111.355469 49.476562 C 110.738281 49.308594 107.570312 52 107.382812 52.894531 C 107.207031 53.808594 108.039062 54.003906 106.539062 54.8125 C 105.058594 55.617188 103.78125 54.792969 103.742188 56.167969 C 103.722656 57.542969 105.175781 56.382812 105.183594 57.542969 C 105.097656 58.820312 103.339844 58.917969 101.554688 60.355469 C 99.640625 61.898438 99.394531 62.347656 97.546875 62.9375 C 95.839844 63.480469 93.789062 66.074219 91.445312 67.558594 C 89.226562 68.953125 88.175781 69.160156 85.605469 69.953125 C 83.121094 70.691406 83.820312 71.007812 81.324219 73.121094 C 78.726562 75.359375 79.304688 75.722656 78.546875 77.382812 C 77.675781 79.132812 75.710938 79.410156 74.808594 80.441406 C 73.878906 81.480469 73.445312 80.039062 73.113281 78.425781 C 72.699219 76.953125 73.601562 76.5 74.210938 75.085938 C 74.828125 73.6875 75.367188 71.960938 75.929688 69.972656 C 76.515625 68 78.585938 66.917969 80.167969 66.003906 C 81.726562 65.082031 81.433594 64.246094 82.75 62.800781 C 83.957031 61.445312 83.132812 60.195312 84.308594 58.25 C 85.632812 56.21875 86.378906 56.34375 88.058594 55.019531 C 89.617188 53.789062 88.980469 52.953125 88.980469 52.953125 Z M 102.554688 64.226562 C 103.085938 63.921875 102.898438 64.441406 102.996094 64.824219 C 103.210938 65.148438 103.003906 66.398438 104.035156 66.320312 C 105.046875 66.230469 104.839844 65.679688 105.839844 64.285156 C 106.746094 62.988281 106.566406 62.683594 108.519531 61.925781 C 110.621094 61.101562 110.230469 62.121094 110.5625 62.664062 C 110.777344 63.292969 111.574219 63.203125 110.777344 63.832031 C 110.121094 64.421875 110.296875 64.6875 110.335938 66.082031 C 110.40625 67.5 109.453125 67.339844 108.148438 67.695312 C 106.726562 68.136719 106.351562 68.628906 104.976562 69.179688 C 103.730469 69.640625 104.125 69.464844 103.40625 70.179688 C 102.691406 70.90625 102.339844 70.4375 101.867188 70.054688 C 101.394531 69.640625 100.386719 69.996094 99.796875 68.992188 C 99.226562 67.980469 99.699219 67.351562 99.824219 66.546875 C 99.953125 65.699219 100.828125 65.632812 101.710938 65.335938 C 102.703125 64.941406 102.269531 64.570312 102.554688 64.226562 Z M 11.703125 174.90625 C 11.851562 174.730469 12.222656 174.40625 12.558594 173.363281 C 12.910156 172.15625 12.910156 171.09375 13.472656 171.476562 C 14.03125 172.066406 13.863281 171.171875 14.226562 172.441406 C 14.628906 173.863281 14.589844 173.707031 15.355469 173.757812 C 16.167969 173.628906 16.699219 174.367188 17.21875 174.574219 C 17.710938 174.777344 18.847656 174.671875 18.160156 176.527344 C 17.503906 178.207031 18.082031 178.90625 17.074219 178.867188 C 16.101562 178.996094 15.5625 180.007812 15.179688 179.464844 C 14.785156 179.101562 14.707031 178.757812 14.746094 177.726562 C 14.757812 176.65625 14.953125 177.207031 14.324219 176.113281 C 13.726562 175.023438 14.265625 173.3125 13.84375 173.453125 C 13.410156 173.414062 13.894531 173.648438 13.253906 174.835938 C 12.644531 175.996094 11.4375 177.175781 11.703125 174.90625 Z M 22.148438 176.765625 C 21.722656 176.546875 21.617188 176.882812 21.292969 176.035156 C 21 175.003906 20.398438 174.464844 20.144531 174.757812 C 19.910156 175.113281 19.546875 175.242188 19.308594 176.410156 C 19.085938 177.777344 18.730469 177.226562 18.839844 178.089844 C 18.964844 178.933594 18.671875 179.425781 19.566406 179.308594 C 20.46875 179.023438 20.578125 178.335938 21.058594 178.199219 C 21.488281 178.050781 21.15625 178.355469 21.882812 178.070312 C 22.609375 177.921875 23.097656 178.128906 22.851562 177.117188 C 22.570312 176.273438 22.390625 176.753906 22.148438 176.765625 Z M 25.667969 175.160156 C 25.609375 175.152344 25.355469 175.949219 25.011719 176.578125 C 24.660156 177.046875 24.160156 177.363281 24.265625 178.1875 C 24.394531 178.855469 24.285156 178.679688 24.953125 179.191406 C 25.640625 179.730469 26.003906 179.257812 26.355469 178.304688 C 26.71875 177.511719 27.074219 177.039062 26.757812 176.214844 C 26.453125 175.535156 26.347656 174.386719 25.667969 175.160156 Z M 213.347656 82.699219 C 212.324219 83.792969 214.171875 83.8125 215.160156 83.75 C 216.066406 83.703125 216.664062 84.332031 217.398438 85.972656 C 218.097656 87.613281 218.292969 87.359375 220.089844 88.519531 C 221.863281 89.695312 222.394531 90.324219 223.5625 90.433594 C 224.730469 90.511719 224.082031 89.902344 224.820312 89.078125 C 225.59375 88.242188 226.269531 89.097656 226.515625 90.160156 C 226.832031 91.269531 224.398438 91.644531 223.757812 91.910156 C 223.042969 92.125 225.082031 93.441406 225.898438 94.121094 C 226.613281 94.75 226.761719 94.160156 228.902344 94.019531 C 230.960938 93.855469 230.34375 95.917969 228.648438 96.554688 C 226.96875 97.175781 227.722656 97.144531 228.078125 98.71875 C 228.421875 100.28125 229.785156 99.40625 230.214844 100.734375 C 230.621094 102.03125 229.421875 101.902344 227.871094 103.191406 C 226.25 104.46875 225.890625 103.503906 223.757812 103.660156 C 221.5625 103.828125 221.511719 103.699219 220.472656 101.648438 C 219.382812 99.574219 219.714844 100.546875 218.105469 99.328125 C 216.476562 98.097656 217.644531 97.832031 218.675781 96.496094 C 219.726562 95.210938 218.332031 94.53125 216.957031 94.375 C 215.601562 94.199219 216.003906 92.476562 212.726562 90.660156 C 209.402344 88.84375 212.21875 87.800781 209.136719 87.230469 C 206.132812 86.710938 204.894531 84.929688 205.601562 83.792969 C 206.222656 82.640625 205.847656 81.089844 208.28125 79.664062 C 210.675781 78.257812 210.390625 79.171875 212.199219 79.566406 C 213.914062 79.929688 214.523438 79.289062 216.222656 79.390625 C 217.792969 79.4375 218.449219 80.792969 216.515625 81.148438 C 214.632812 81.519531 215.191406 82.503906 213.347656 82.699219 Z M 226.320312 78.945312 C 227.675781 78.886719 227.78125 79.9375 227.585938 80.753906 C 227.410156 81.589844 228.039062 81.492188 229.226562 81.550781 C 230.316406 81.582031 231.011719 82.542969 230.089844 83.320312 C 229.273438 84.125 229.207031 84.890625 227.832031 84.203125 C 226.554688 83.566406 226.839844 84.015625 225.488281 82.9375 C 224.003906 81.824219 224.601562 81.785156 224.515625 80.714844 C 224.40625 79.632812 226.320312 78.945312 226.320312 78.945312 Z M 119.945312 120.699219 C 119.945312 120.699219 115.429688 123.207031 113.585938 126.28125 C 111.769531 129.347656 111.679688 130.359375 110.652344 132.640625 C 109.601562 135.007812 105.800781 136.894531 105.539062 137.839844 C 105.253906 138.792969 102.703125 141.21875 102.703125 141.21875 C 102.703125 141.21875 96.910156 149.082031 97.972656 153.875 C 99.019531 158.828125 96.460938 162.996094 96.636719 169.097656 C 96.824219 175.308594 94.691406 178.933594 100.582031 183.023438 C 106.585938 187.171875 107.902344 194.089844 118.128906 194.316406 C 128.660156 194.621094 133.644531 194.265625 136.894531 191.800781 C 140.140625 189.421875 141.171875 187.90625 145.835938 188.949219 C 150.554688 190.050781 145.394531 195.542969 149.496094 194.875 C 153.628906 194.234375 156.160156 193.519531 156.425781 197.546875 C 156.707031 201.597656 156.867188 204.800781 155.402344 207.589844 C 153.949219 210.390625 157.394531 212.445312 161.214844 217.464844 C 165.050781 222.488281 167.191406 220.246094 167.738281 229.730469 C 168.347656 239.175781 170.929688 242.035156 169.644531 244.492188 C 168.347656 246.90625 165.238281 247.429688 166.433594 250.398438 C 167.652344 253.304688 171.164062 257.511719 173.480469 261.953125 C 175.855469 266.355469 172.910156 273.351562 175.121094 276.574219 C 177.320312 279.71875 178.300781 280.125 180.820312 282.894531 C 183.304688 285.558594 183.316406 287.257812 181.136719 289.519531 C 178.988281 291.730469 183.597656 297.449219 190.234375 296.730469 C 196.925781 295.953125 195.816406 294.285156 199.058594 293.125 C 202.355469 291.925781 203.433594 291.914062 205.132812 289.292969 C 206.859375 286.617188 207.191406 285.046875 209.851562 282.316406 C 212.402344 279.5625 211 279.9375 213.453125 275.574219 C 215.984375 271.152344 213.894531 271.613281 214.355469 269.214844 C 214.730469 266.808594 215.496094 270.21875 218.585938 267.664062 C 221.628906 265.066406 221.84375 264.960938 221.933594 263.871094 C 222.070312 262.738281 221.84375 263.054688 221.621094 260.519531 C 221.335938 257.992188 220.292969 257.777344 220.472656 256.324219 C 220.628906 254.820312 220.589844 253.375 222.464844 252.324219 C 224.40625 251.222656 225.507812 248.324219 226.4375 247.203125 C 227.332031 246.082031 231.5625 243.546875 231.679688 241.59375 C 231.808594 239.644531 232.367188 230.78125 229.894531 228.464844 C 227.410156 226.113281 224.867188 224.691406 224.847656 221.300781 C 224.78125 217.917969 225.074219 215.804688 225.023438 213.320312 C 224.976562 210.824219 225.605469 205.605469 228.726562 203.199219 C 231.855469 200.808594 236.734375 193.035156 239.65625 190.019531 C 242.535156 186.933594 242.082031 184.675781 242.160156 181.953125 C 242.257812 179.257812 243.613281 175.121094 245.015625 172.15625 C 246.410156 169.234375 246.546875 163.3125 245.046875 163.554688 C 243.523438 163.78125 241.375 165.15625 240 165.894531 C 238.617188 166.601562 236.644531 165.640625 234.417969 168.183594 C 232.148438 170.710938 231.609375 169.558594 230.375 168.222656 C 229.128906 166.839844 228.824219 165.324219 227.371094 165.503906 C 225.898438 165.679688 227.773438 164.675781 226.644531 162.78125 C 225.507812 160.863281 221.972656 159.636719 220.695312 158.886719 C 219.410156 158.09375 218.214844 159.839844 216.722656 155.863281 C 215.25 151.921875 215.003906 150.566406 214.425781 149.394531 C 213.894531 148.265625 211.246094 147.851562 210.390625 145.230469 C 209.578125 142.675781 209.480469 143.980469 207.851562 141.554688 C 206.230469 139.144531 207.371094 137.632812 205.9375 136.523438 C 204.472656 135.402344 202.519531 135.785156 201.253906 132.699219 C 199.988281 129.613281 199.332031 130.253906 197.917969 127.609375 C 196.464844 124.957031 196.042969 125.320312 196.023438 124.523438 C 196.054688 123.757812 194.972656 122.527344 197.269531 123.355469 C 199.578125 124.171875 198.359375 126.402344 199.929688 125.378906 C 201.480469 124.335938 199.164062 123.136719 200.734375 122.234375 C 202.335938 121.308594 201.753906 120.800781 202.539062 123.109375 C 203.304688 125.410156 204.738281 126.15625 205.917969 128.445312 C 207.125 130.765625 208.105469 132.316406 210.550781 135.777344 C 212.964844 139.253906 211.207031 140.503906 214.394531 141.878906 C 217.527344 143.214844 214.917969 143.617188 216.613281 145.316406 C 218.320312 147.027344 218.960938 148.058594 223.375 150.792969 C 227.792969 153.550781 226.3125 150.425781 227.488281 154.289062 C 228.675781 158.152344 228.390625 160.796875 231.207031 161.1875 C 234.015625 161.609375 234.722656 161.050781 239.335938 158.867188 C 243.917969 156.726562 242.496094 157.769531 245.152344 154.523438 C 247.792969 151.300781 248.875 152.195312 251.308594 148.453125 C 253.710938 144.746094 254.671875 142.910156 254.839844 139.6875 C 255.035156 136.484375 255.800781 135.492188 254.839844 134.734375 C 253.90625 133.957031 252.769531 134.882812 251.542969 133.742188 C 250.265625 132.570312 249.894531 132.769531 248.894531 131.699219 C 247.890625 130.617188 247.902344 131.589844 247.578125 129.996094 C 247.246094 128.394531 246.300781 125.003906 245.898438 127.117188 C 245.507812 129.28125 246.46875 129.820312 245.261719 130.136719 C 244.023438 130.429688 243.121094 131.109375 241.628906 131.1875 C 240.21875 131.363281 240.421875 129.320312 238.773438 128.964844 C 237.183594 128.71875 236.988281 131.679688 236.195312 130.339844 C 235.429688 129.054688 236.578125 130.695312 234.96875 128.101562 C 233.355469 125.507812 235.164062 127.128906 232.070312 125.09375 C 228.980469 123.058594 227.378906 123.621094 226.96875 121.25 C 226.566406 118.921875 224.878906 117.292969 227.097656 116.523438 C 229.304688 115.730469 227.949219 115.34375 230.492188 118.019531 C 233.09375 120.78125 235.054688 119.789062 237.722656 122.3125 C 240.363281 124.847656 240.550781 124.996094 242.367188 124.886719 C 244.222656 124.808594 245.410156 124.128906 246.617188 123.699219 C 247.804688 123.21875 245.949219 124.789062 249.355469 126.3125 C 252.808594 127.914062 254.59375 126.765625 256.804688 126.507812 C 259.019531 126.3125 261.613281 125.710938 264.859375 126.085938 C 268.089844 126.480469 269.050781 130.664062 270.445312 131.746094 C 271.78125 132.75 272.769531 133.09375 273.949219 132.582031 C 275.136719 132.070312 274.902344 132.945312 274.28125 133.789062 C 273.714844 134.734375 274.125 137.035156 275.960938 136.679688 C 277.855469 136.425781 277.039062 137.121094 277.863281 135.726562 C 278.679688 134.300781 278.609375 133.378906 279.425781 133.625 C 280.21875 133.910156 278.785156 136.277344 279.925781 136.945312 C 281.023438 137.5625 280.730469 135.6875 281.554688 136.914062 C 282.4375 138.242188 282.144531 137.445312 282.429688 139.539062 C 282.625 141.554688 282.289062 142.308594 282.988281 142.308594 C 283.644531 142.242188 283.949219 143.144531 283.949219 143.144531 C 283.949219 143.144531 285.46875 142.566406 285.085938 143.578125 C 284.664062 144.570312 284.734375 145.554688 286.65625 148.628906 C 288.582031 151.765625 289.03125 153.425781 289.816406 153.730469 C 290.613281 154.023438 290.800781 155.980469 290.800781 155.980469 C 290.800781 155.980469 294.441406 162.417969 295.480469 163.773438 C 296.570312 165.226562 297.257812 164.628906 297.855469 166.109375 C 298.445312 167.605469 299.074219 168.164062 299.4375 168.097656 C 299.808594 168.15625 301.183594 168.066406 301.332031 164.765625 C 301.476562 161.550781 300.625 159.007812 301.289062 157.855469 C 301.957031 156.746094 302.449219 157.109375 302.046875 155.617188 C 301.644531 154.140625 301.683594 154.367188 300.457031 153.023438 C 299.238281 151.664062 299.445312 150.359375 300.359375 149.582031 C 301.25 148.796875 302.851562 146.59375 303.585938 145.957031 C 304.3125 145.289062 304.53125 142.96875 305.660156 140.796875 C 306.796875 138.714844 307.101562 138.027344 306.796875 136.757812 C 306.542969 135.628906 306.804688 133.378906 308.269531 135.136719 C 309.808594 137.09375 308.945312 136.03125 310.359375 135.136719 C 311.742188 134.253906 310.949219 132.257812 312.402344 133.378906 C 313.902344 134.664062 312.753906 136.160156 314.214844 136 C 315.679688 135.875 316.277344 137.425781 317.957031 138.113281 C 319.613281 138.8125 319.769531 138.617188 319.890625 140.355469 C 320.054688 142.203125 320.015625 143.566406 320.46875 144.992188 C 320.988281 146.613281 321.597656 147.144531 322.460938 146.890625 C 323.304688 146.644531 322.871094 145.898438 323.558594 144.492188 C 324.265625 143.214844 323.992188 141.230469 324.667969 142.183594 C 325.34375 143.183594 326.21875 143.667969 326.613281 146.851562 C 327.003906 150.042969 328.0625 149.613281 328.359375 151.644531 C 328.625 153.640625 329.710938 152.804688 329.800781 153.679688 C 329.898438 154.523438 330.949219 161.148438 330.960938 162.179688 C 330.941406 163.054688 329.417969 164.203125 330.496094 165.472656 C 331.605469 166.78125 331.390625 165.355469 332.882812 167.9375 C 334.277344 170.128906 335.855469 172.941406 336.535156 173.921875 C 337.191406 174.925781 340.261719 179.722656 341.824219 180.578125 C 343.363281 181.449219 343.589844 179.730469 343.5 178.816406 C 343.402344 177.875 342.777344 178.542969 342.617188 176.980469 C 342.441406 175.445312 343.078125 174.90625 341.949219 173.460938 C 340.8125 171.851562 339.9375 171.632812 338.644531 170.101562 C 337.359375 168.726562 337.496094 167.929688 336.101562 167.074219 C 334.679688 166.210938 334.019531 166.738281 333.433594 165.648438 C 332.824219 164.402344 331.910156 158.4375 332.597656 156.65625 C 333.253906 154.871094 333.726562 152.902344 334.304688 154.328125 C 334.84375 155.578125 334.109375 156.667969 335.289062 156.558594 C 336.464844 156.492188 336.355469 155.734375 337.691406 156.855469 C 339.054688 158.140625 339.476562 157.914062 340.066406 159.546875 C 340.617188 161.011719 339.695312 161.484375 340.664062 162.09375 C 341.636719 162.722656 341.546875 161.816406 342.3125 160.085938 C 343.050781 158.199219 343.835938 158.542969 343.21875 155.597656 C 342.539062 152.5 342.433594 150.574219 340.214844 148.699219 C 337.945312 146.859375 335.925781 144.523438 335.335938 142.4375 C 334.757812 140.363281 334.421875 140.964844 334.550781 139.480469 C 334.648438 137.988281 334.160156 137.496094 334.550781 135.726562 C 334.933594 133.917969 337.015625 133.347656 337.210938 135.136719 C 337.378906 136.914062 337.574219 136.679688 337.191406 138.292969 C 336.777344 139.902344 336.730469 140.582031 337.582031 141.289062 C 338.40625 141.867188 338.691406 142.113281 338.625 140.304688 C 338.574219 138.695312 339.378906 139.589844 339.183594 138.132812 C 339.007812 136.710938 337.996094 136.375 338.417969 135.226562 C 338.859375 134.054688 338.359375 133.585938 339.65625 133.445312 C 340.988281 133.503906 341.292969 133.929688 341.65625 132.738281 C 342.011719 131.609375 342.136719 131.738281 342.796875 130.421875 C 343.433594 129.152344 343.078125 128.042969 342.980469 127.1875 C 342.972656 126.480469 341.960938 121.859375 341.910156 121.339844 C 341.832031 120.652344 342.285156 118.617188 341.15625 117.8125 C 339.9375 116.925781 340.5 117.585938 339.527344 116.742188 C 338.488281 115.75 338.839844 115.582031 339.035156 114.753906 C 339.242188 113.910156 338.859375 113.539062 338.113281 112.78125 C 337.308594 111.875 336.574219 109.625 335.179688 109.214844 C 333.765625 108.839844 333.550781 109.5 332.332031 108.140625 C 331.066406 106.765625 331.039062 107.148438 330.390625 106.011719 C 329.832031 105.015625 330.359375 104.703125 330.625 103.621094 C 330.761719 102.355469 330.417969 102.011719 329.378906 101.460938 C 328.4375 101.097656 327.121094 101.292969 326.484375 100.371094 C 325.777344 99.277344 322.753906 95.179688 324.777344 96.417969 C 326.769531 97.65625 325.789062 97.882812 327.542969 98.34375 C 329.171875 98.6875 329.890625 98.039062 330.253906 99.191406 C 330.695312 100.488281 330.027344 100.125 331.644531 101.449219 C 333.253906 102.855469 332.707031 100.632812 334.1875 102.5 C 335.582031 104.230469 334.816406 104.09375 335.71875 104.917969 C 336.632812 105.765625 337.269531 105.625 337.496094 106.480469 C 337.769531 107.472656 337.523438 108.367188 338.242188 108.769531 C 338.878906 108.996094 337.535156 106.84375 338.347656 107.160156 C 339.074219 107.355469 339.417969 107.1875 339.359375 106.453125 C 339.191406 105.558594 338.898438 105.507812 337.945312 104.101562 C 337.074219 102.816406 337.320312 103.082031 335.308594 101.097656 C 333.253906 99.160156 332.214844 98.179688 331.988281 97.519531 C 331.773438 96.851562 331.527344 96.617188 330.261719 94.816406 C 328.976562 93.027344 329.171875 92.496094 330.261719 92.171875 C 331.222656 91.742188 331.871094 92.152344 330.449219 89.972656 C 329.035156 87.851562 329.449219 88.792969 327.78125 86.816406 C 326.089844 84.863281 325.835938 83.121094 323.5 81.246094 C 321.136719 79.398438 319.4375 78.355469 317.335938 76.371094 C 315.199219 74.378906 315.316406 73.363281 312.664062 71.890625 C 309.859375 70.347656 305.058594 70.160156 304.226562 68.65625 C 303.371094 67.144531 303.441406 65.394531 303.292969 64.816406 C 303.019531 64.148438 302.320312 62.917969 304.332031 63.734375 C 306.324219 64.578125 307.789062 64.796875 309.082031 65.425781 C 310.25 65.945312 311.949219 66.671875 311.125 65.808594 C 310.269531 64.972656 310.890625 66.0625 309.4375 64.570312 C 307.875 62.996094 307.160156 62.457031 307.660156 62.46875 C 308.132812 62.457031 307.964844 62.398438 309.4375 63.136719 C 310.871094 63.871094 311.105469 63.136719 311.839844 64.148438 C 312.644531 65.289062 312.703125 66.199219 313.570312 67.292969 C 314.3125 68.253906 314.714844 68.84375 316.542969 69.984375 C 318.339844 71.152344 319.222656 72.234375 319.574219 72.617188 C 320.046875 73.121094 320.164062 72.558594 321.683594 74.011719 C 323.214844 75.496094 323.539062 75.210938 324.394531 76.105469 C 325.335938 77.136719 325.148438 77.070312 326.640625 78.121094 C 328.023438 79.054688 328.683594 79.890625 328.210938 78.917969 C 327.75 77.945312 327.542969 77.867188 326.59375 76.824219 C 325.640625 75.761719 325.835938 75.625 323.746094 73.679688 C 321.636719 71.761719 321.820312 71.390625 320.527344 70.378906 C 319.242188 69.425781 318.984375 69.640625 318.21875 69.167969 C 317.433594 68.6875 317.542969 68.796875 316.328125 67.804688 C 315.097656 66.800781 313.992188 66.425781 314.648438 66.035156 C 315.148438 65.542969 315.679688 66.503906 315.746094 65.710938 C 315.785156 64.933594 315.207031 64.273438 315.394531 64.097656 C 315.707031 64.050781 315.140625 63.351562 314.785156 63.203125 C 314.421875 63.074219 314.460938 63.261719 314.019531 62.96875 C 313.578125 62.671875 313.488281 62.289062 312.578125 61.917969 C 311.832031 61.679688 310.144531 60.660156 307.394531 58.691406 C 304.636719 56.816406 305.15625 57.011719 303.449219 56.050781 C 301.714844 55.097656 299.886719 54.332031 298.503906 53.5625 C 297.109375 52.808594 294.019531 51.726562 292.390625 50.761719 C 290.742188 49.808594 290.476562 49.601562 288.414062 48.945312 C 286.480469 48.433594 284.097656 48.570312 279.347656 47.273438 C 274.4375 46.046875 273.714844 45.308594 268.226562 44.296875 C 262.644531 43.421875 258.207031 42.929688 257.34375 42.519531 C 256.34375 42.035156 255.066406 40.25 253.132812 40.582031 C 251.21875 40.976562 252.730469 42.253906 251.328125 42.734375 C 250.050781 43.285156 247.851562 42.527344 246.046875 42.390625 C 244.417969 42.339844 242.621094 41.839844 241.738281 41.535156 C 240.726562 41.152344 238.882812 39.382812 235.328125 39.285156 C 231.511719 39.136719 228.707031 40.023438 226.3125 39.648438 C 224.0625 39.296875 225.867188 39.539062 224.0625 38.644531 C 222.386719 37.773438 221.519531 36.777344 220.746094 38.117188 C 219.832031 39.5 222.023438 40.710938 220.34375 39.933594 C 218.683594 39.15625 219.734375 39.234375 217.527344 38.015625 C 215.425781 36.828125 217.320312 36.75 213.464844 36.640625 C 209.65625 36.554688 210.371094 36.820312 207.410156 36.160156 C 204.425781 35.53125 202.246094 34.429688 200.46875 35.679688 C 198.703125 36.996094 198.59375 38.449219 198.988281 39.15625 C 199.390625 39.855469 201.589844 39.933594 200.941406 40.574219 C 200.164062 41.210938 198.910156 40.355469 199.117188 41.546875 C 199.175781 42.703125 200.105469 42.105469 201.089844 42.222656 C 202.097656 42.359375 204.367188 42.8125 205.121094 43.765625 C 206.023438 44.757812 208.546875 45.230469 206.957031 45.347656 C 205.503906 45.476562 204.660156 44.042969 203.601562 44.550781 C 202.421875 45.054688 202.433594 44.816406 202.960938 46.46875 C 203.484375 48.140625 203.414062 48.828125 202.21875 48.277344 C 201.03125 47.726562 201.011719 49.21875 200.488281 47.453125 C 199.921875 45.730469 200.734375 46.320312 198.722656 44.757812 C 196.691406 43.226562 197.003906 42.527344 193.699219 42.359375 C 190.527344 42.203125 189.546875 41.929688 191.65625 43.777344 C 193.863281 45.671875 194.40625 46.203125 193.277344 46.09375 C 192.148438 45.988281 192.460938 45.4375 190.902344 45.542969 C 189.507812 45.664062 189.371094 44.769531 188.378906 45.761719 C 187.386719 46.753906 188.800781 47.941406 186.699219 47.589844 C 184.609375 47.246094 182.695312 47.953125 180.332031 47.980469 C 177.964844 48.019531 177.574219 49.800781 176.394531 48.875 C 175.335938 47.953125 177.015625 46.359375 174.511719 46.832031 C 172.039062 47.304688 171.28125 47.921875 171.929688 48.769531 C 172.578125 49.621094 172.566406 49.464844 174.097656 49.621094 C 175.628906 49.808594 174.601562 50.390625 173.855469 51.246094 C 173 52.128906 172.628906 51.183594 172.8125 52.769531 C 172.851562 54.398438 170.988281 53.367188 170.390625 54.054688 C 169.832031 54.773438 171.378906 55.527344 169.96875 55.824219 C 168.554688 56.128906 169.171875 56.679688 167.71875 55.8125 C 166.238281 55 167.160156 54.917969 165.238281 53.976562 C 163.285156 53.03125 163.234375 53.484375 161.722656 52.757812 C 160.308594 51.960938 157.601562 52.433594 159.445312 51.894531 C 161.300781 51.363281 160.46875 52.089844 163.792969 51.960938 C 167.21875 51.824219 166.628906 52.492188 167.789062 51.117188 C 168.859375 49.789062 169.015625 49.917969 166.308594 49.582031 C 163.714844 49.238281 164.699219 49.996094 162.851562 49.160156 C 160.851562 48.375 161.496094 48.75 159.164062 47.894531 C 156.816406 47.066406 157.355469 47.570312 154.109375 47.410156 C 150.808594 47.285156 151.4375 45.710938 149.496094 46.851562 C 147.582031 48.019531 146.824219 48.503906 145.265625 49.730469 C 143.695312 50.960938 140.976562 51.824219 140.878906 53.710938 C 140.5625 55.695312 140.996094 56.511719 138.050781 59.203125 C 135.070312 61.957031 134.222656 61.375 134.324219 63.96875 C 134.351562 66.625 133.527344 66.691406 135 67.410156 C 136.550781 68.058594 134.488281 69.757812 136.972656 68.675781 C 139.554688 67.527344 138.070312 65.652344 140.632812 66.457031 C 143.164062 67.300781 141.476562 67.183594 141.546875 69.101562 C 141.761719 70.996094 142.664062 70.210938 143.085938 71.664062 C 143.558594 73.140625 143.902344 72.726562 145.363281 72.816406 C 146.835938 72.894531 147.226562 72.597656 148.414062 71.171875 C 149.59375 69.75 149.867188 69.796875 149.671875 68.402344 C 149.367188 67.066406 150.445312 65.886719 148.730469 64.6875 C 147.003906 63.539062 146.835938 64.707031 146.492188 63.234375 C 146.257812 61.738281 146.785156 61.1875 147.265625 59.746094 C 147.789062 58.308594 148.160156 57.199219 150.386719 56.167969 C 152.644531 55.144531 152.546875 54.839844 151.527344 57.199219 C 150.535156 59.558594 149.996094 58.625 150.800781 59.941406 C 151.585938 61.257812 151.734375 61.75 153.429688 61.542969 C 155.246094 61.296875 156.207031 61.453125 157.855469 61.109375 C 159.625 60.757812 162.980469 60.441406 161.527344 61.640625 C 160.09375 62.8125 159.523438 61.492188 157.453125 62.164062 C 155.402344 62.898438 154.324219 64.292969 155.953125 65.492188 C 157.671875 66.671875 158.09375 65.769531 158.082031 66.78125 C 158.074219 67.753906 157.414062 65.621094 156.382812 68.066406 C 155.550781 70.523438 156.667969 70.121094 155.855469 71.203125 C 155.058594 72.292969 155.578125 72.351562 152.78125 73.382812 C 150.023438 74.4375 155.363281 74.152344 150.105469 75.390625 C 144.921875 76.609375 146.570312 77.296875 143.890625 76.933594 C 141.308594 76.570312 141.007812 77.972656 141.289062 76.539062 C 141.59375 75.09375 142.703125 76.214844 142.800781 75.171875 C 143.027344 74.113281 143.792969 74.101562 142.152344 73.296875 C 140.515625 72.492188 141.917969 73.058594 140.269531 71.921875 C 138.691406 70.75 139.269531 71.171875 138.25 71.644531 C 137.355469 72.085938 137.933594 72.753906 137.796875 74.03125 C 137.71875 75.3125 137.984375 77.050781 137.925781 77.785156 C 137.894531 78.554688 137.464844 78.484375 135.3125 79.261719 C 133.164062 80.019531 133.253906 79.957031 131.898438 81.71875 C 130.5625 83.476562 131.378906 83.75 129.152344 85.273438 C 126.953125 86.828125 126.804688 87.917969 126.070312 87.625 C 125.421875 87.269531 125.058594 88.4375 124.039062 87.074219 C 122.949219 85.816406 121.457031 86.601562 121.898438 85.53125 C 122.25 84.519531 121.730469 85.492188 123.476562 84.625 C 125.125 83.859375 123.792969 83.082031 125.960938 82.691406 C 128.207031 82.230469 128.128906 80.628906 129.128906 79.910156 C 130.023438 79.261719 130.0625 79.113281 128.464844 78.691406 C 126.933594 78.277344 127.539062 79.074219 126.128906 78.089844 C 124.703125 77.148438 124.203125 78.03125 124.234375 76.832031 C 124.164062 75.714844 123.566406 75.675781 123.554688 74.132812 C 123.566406 72.597656 122.898438 72.992188 123.132812 71.546875 C 123.261719 70.160156 123.832031 68.402344 122.59375 69.492188 C 121.359375 70.582031 122.023438 70.378906 120.160156 71.46875 C 118.335938 72.539062 119.609375 73.109375 117.953125 73.964844 C 116.410156 74.761719 117.558594 74.574219 118.460938 74.78125 C 119.375 74.996094 118.945312 74.808594 119.464844 76.609375 C 120.132812 78.40625 119.875 78.71875 119.671875 79.113281 C 119.484375 79.515625 119.199219 78.859375 118.933594 80.546875 C 118.609375 82.328125 118.71875 83.378906 118.660156 83.976562 C 118.71875 84.5 118.304688 84.539062 117.53125 84.539062 C 116.773438 84.507812 115.695312 84.707031 115.84375 84.035156 C 115.960938 83.367188 115.253906 83.449219 115.988281 82.515625 C 116.628906 81.648438 116.390625 81.53125 117.273438 80.804688 C 118.058594 80.164062 118.925781 80.539062 117.980469 79.800781 C 117.148438 78.996094 117.597656 78.496094 116.570312 78.582031 C 115.65625 78.601562 115.28125 77.117188 114.339844 78.070312 C 113.535156 78.984375 113.328125 78.230469 112.671875 79.347656 C 112.132812 80.410156 110.445312 80.960938 110.835938 82.355469 C 111.140625 83.839844 111.269531 83.800781 112.886719 84.085938 C 114.507812 84.351562 113.792969 83.78125 115.46875 84.636719 C 117.058594 85.578125 116.53125 85.039062 117.914062 85.273438 C 119.386719 85.472656 119.425781 85.117188 119.425781 85.117188 C 119.425781 85.117188 121.320312 84.195312 121.417969 85.234375 C 121.621094 86.199219 121.574219 86.347656 121.28125 86.5625 C 121.015625 86.808594 120.0625 87.339844 119.628906 87.96875 C 119.179688 88.585938 119.042969 89 119.121094 89.933594 C 119.199219 90.867188 118.667969 91.308594 120.496094 92.871094 C 122.457031 94.382812 122.230469 93.707031 123.164062 95.210938 C 124.105469 96.734375 124.410156 97.527344 123.339844 98.628906 C 122.347656 99.691406 121.40625 100.96875 118.875 101.273438 C 116.304688 101.648438 116.960938 101.058594 115.136719 102.335938 C 113.230469 103.710938 112.566406 105.28125 112.171875 107.75 C 111.738281 110.273438 110.652344 111.769531 111.859375 113.359375 C 112.996094 115.03125 111.160156 116.59375 115.664062 117.546875 C 120.289062 118.507812 117.738281 119.117188 121.015625 116.9375 C 124.339844 114.707031 124.117188 115.71875 125.6875 113.625 C 127.296875 111.492188 126.480469 112.003906 127.414062 109.617188 C 128.386719 107.160156 129.394531 107.996094 130.984375 106.863281 C 132.585938 105.734375 130.761719 105.15625 131.742188 103.257812 C 132.691406 101.402344 133.320312 99.957031 136.597656 97.667969 C 139.839844 95.425781 138.089844 95.210938 141.917969 95.191406 C 145.746094 95.179688 146.902344 94.335938 147.796875 96.585938 C 148.699219 98.828125 149.339844 100.261719 150.507812 99.601562 C 151.574219 98.984375 151.890625 97.46875 152.378906 98.945312 C 152.890625 100.429688 153.65625 101.3125 152.566406 102.078125 C 151.4375 102.867188 150.585938 102.804688 151.910156 103.542969 C 153.292969 104.230469 152.46875 103.011719 152.273438 106.539062 C 152.105469 110.097656 154.875 109.085938 155.511719 107.277344 C 156.1875 105.460938 153.253906 103.898438 155.796875 102.824219 C 158.289062 101.773438 162.105469 100.734375 163.792969 101.765625 C 165.433594 102.796875 164.84375 103.257812 165.6875 104.320312 C 166.40625 105.429688 165.238281 108.554688 166.03125 109.292969 C 166.914062 110.007812 168.867188 110.039062 170.929688 108.78125 C 172.949219 107.523438 173.441406 108.398438 172.628906 106.746094 C 171.902344 105.085938 173.785156 106.246094 170.59375 104.171875 C 167.496094 102.109375 167.632812 102.257812 168.542969 100.457031 C 169.59375 98.628906 175.503906 98.199219 175.796875 99.59375 C 176.082031 100.988281 175.265625 100.8125 175.972656 103.238281 C 176.75 105.707031 176.976562 105.597656 179.332031 106.785156 C 181.746094 107.984375 182.246094 106.011719 186.59375 106.1875 C 190.921875 106.375 190.96875 104.910156 193.707031 105.539062 C 196.40625 106.175781 196.101562 106.039062 197.203125 108.398438 C 198.3125 110.796875 199.398438 113.644531 197.515625 115.628906 C 195.582031 117.617188 198.683594 118.363281 193.609375 118.753906 C 188.605469 119.21875 186.367188 121.054688 183.375 119.667969 C 180.46875 118.3125 178.269531 119.316406 178.386719 117.300781 C 178.457031 115.304688 178.566406 113.824219 176.257812 114.265625 C 173.894531 114.734375 176.152344 115.316406 172.265625 116.152344 C 168.386719 116.976562 169.910156 116.820312 167.433594 118.992188 C 164.980469 121.183594 164.519531 121.339844 162.117188 120.878906 C 159.683594 120.4375 161.839844 119.421875 158.082031 119.324219 C 154.351562 119.277344 153.527344 121.527344 150.878906 119.828125 C 148.308594 118.125 147.835938 118.570312 147.71875 116.808594 C 147.570312 115.070312 150.164062 114.519531 148.238281 113.390625 C 146.296875 112.308594 146.148438 112.054688 143.765625 113.214844 C 141.359375 114.390625 143 114.894531 139.464844 115.582031 C 135.851562 116.339844 136.480469 115.867188 133.390625 117.734375 C 130.339844 119.5625 131.59375 120.496094 126.933594 120.859375 C 122.320312 121.210938 121.820312 120.445312 119.945312 120.699219 Z M 239.785156 242.179688 C 239.785156 242.179688 242.171875 239.410156 243.308594 238.320312 C 244.457031 237.1875 244.730469 234.851562 246.007812 235.253906 C 247.292969 235.625 248.578125 235.273438 248.539062 236.863281 C 248.492188 238.488281 250.1875 239.832031 248.992188 241.179688 C 247.765625 242.496094 245.871094 242.496094 245.753906 243.949219 C 245.65625 245.394531 246.175781 246.152344 247.027344 246.644531 C 247.792969 247.210938 248.773438 248.714844 247.726562 248.980469 C 246.753906 249.1875 246.125 249.160156 246.253906 250.316406 C 246.300781 251.515625 245.890625 251.851562 246.261719 253.777344 C 246.675781 255.632812 247.539062 258.101562 246.941406 258.828125 C 246.332031 259.566406 245.832031 261.1875 245.074219 261.757812 C 244.222656 262.367188 244.644531 265.207031 242.375 265.15625 C 240.128906 265.046875 240.621094 265.433594 239.402344 264.09375 C 238.175781 262.730469 237.460938 262.503906 237.765625 261.460938 C 238.046875 260.441406 236.683594 259.359375 238.363281 258.386719 C 240.109375 257.375 240.167969 256.992188 240.011719 255.910156 C 239.835938 254.839844 239.226562 254.171875 239.84375 252.617188 C 240.492188 251.015625 240.699219 249.964844 240.296875 248.707031 C 239.960938 247.449219 239.097656 248.15625 238.402344 246.5625 C 237.734375 244.933594 238.429688 242.828125 239.785156 242.179688 Z M 304.628906 163.289062 C 304.539062 163.78125 304.039062 163.773438 304.273438 164.441406 C 304.492188 164.992188 303.851562 164.507812 303.824219 165.492188 C 303.765625 166.328125 303.203125 166.070312 303.539062 167.683594 C 303.902344 169.285156 303.371094 169.824219 304.1875 170.777344 C 304.980469 171.632812 306.101562 172.558594 307.316406 171.8125 C 308.535156 171.054688 308.542969 170.535156 308.417969 169.71875 C 308.289062 168.992188 308.917969 168.785156 308.0625 168.300781 C 307.199219 167.800781 307.070312 168.066406 306.828125 166.996094 C 306.601562 166.070312 307.003906 166.503906 306.21875 165.414062 C 305.441406 164.460938 305.394531 162.898438 304.628906 163.289062 Z M 316.828125 75.449219 C 316.828125 75.449219 316.347656 74.523438 315.804688 74.082031 C 315.160156 73.511719 314.519531 73.167969 314.824219 72.441406 C 315.21875 71.851562 314.667969 71.449219 316.386719 72.667969 C 318.09375 73.914062 317.738281 74.210938 318.945312 75.4375 C 320.152344 76.675781 320.085938 76.707031 320.949219 76.882812 C 321.8125 77.089844 322.566406 77.796875 323.628906 79.152344 C 324.679688 80.539062 324.539062 80.628906 325.582031 80.929688 C 326.601562 81.234375 327.554688 83.132812 328.671875 83.625 C 329.753906 84.117188 331.683594 86.40625 331.683594 86.40625 C 331.683594 86.40625 332.960938 88.507812 332.441406 88.214844 C 332.007812 88.085938 330.476562 86.394531 330.734375 87.496094 C 330.871094 88.460938 331.460938 88.882812 330.644531 88.390625 C 329.742188 87.761719 329.429688 87.339844 328.878906 86.246094 C 328.417969 85.304688 327.457031 84.539062 326.699219 83.566406 C 325.945312 82.621094 325.296875 81.804688 324.375 81 C 323.558594 80.3125 324.117188 80.953125 322.675781 79.476562 C 321.117188 77.875 321.636719 78.554688 320.28125 77.660156 C 318.859375 76.636719 318.574219 76.203125 318.210938 76.507812 C 317.730469 76.695312 317.070312 75.910156 316.828125 75.449219 Z M 333.285156 88.921875 C 333.335938 89.707031 333.648438 89.519531 333.921875 90.375 C 334.167969 91.25 334.84375 91.21875 334.992188 92.378906 C 335.101562 93.558594 335.730469 94.601562 336.296875 94.867188 C 336.976562 95.289062 338.027344 96.675781 337.59375 95.515625 C 337.042969 94.199219 336.277344 93.84375 336.996094 93.597656 C 337.683594 93.382812 337.25 93.027344 337.171875 92.242188 C 337.171875 91.625 337.261719 91.554688 336.464844 91.230469 C 335.582031 90.769531 335.101562 90.011719 334.621094 89.921875 C 334.019531 89.65625 333.34375 88.429688 333.285156 88.921875 Z M 343.570312 106.175781 C 343.539062 106.597656 343.238281 106.570312 343.011719 106.882812 C 342.753906 107.207031 342.636719 106.863281 342.363281 107.394531 C 341.992188 107.789062 341.34375 107.511719 341.941406 108.398438 C 342.589844 109.410156 342.382812 108.75 343.078125 108.976562 C 343.777344 109.222656 343.621094 109.113281 343.707031 110.039062 C 343.785156 110.941406 343.402344 110.1875 343.363281 111.347656 C 343.382812 112.652344 342.285156 112.425781 343.355469 113.261719 C 344.40625 114.097656 344.167969 113.066406 344.71875 113.773438 C 345.277344 114.453125 344.679688 114.550781 345.5625 114.894531 C 346.367188 115.101562 346.230469 114.207031 345.699219 112.929688 C 345.152344 111.640625 343.570312 109.527344 344.304688 109.929688 C 345.082031 110.519531 344.425781 110.824219 345.269531 111.003906 C 346.160156 111.367188 345.710938 110.796875 346.347656 110.480469 C 347.015625 110.371094 347.113281 110.5 347.042969 109.175781 C 347.003906 108.851562 347.015625 108.632812 346.996094 108.445312 C 346.542969 107.511719 346.074219 106.597656 345.601562 105.664062 C 344.472656 103.964844 344.386719 104.042969 343.433594 102.296875 C 342.324219 100.28125 343.078125 101.28125 342.03125 99.847656 C 340.949219 98.402344 340.910156 98.019531 340.292969 97.773438 C 339.683594 97.527344 339.144531 97.019531 340.378906 99.140625 C 341.5 101.144531 342.089844 101.421875 342.402344 102.441406 C 342.726562 103.464844 343.921875 105.441406 343.570312 106.175781 Z M 347.96875 177.472656 C 348.898438 178.21875 348.554688 180.496094 349.5 178.835938 C 350.429688 177.167969 349.054688 177.882812 350.332031 175.546875 C 351.53125 173.304688 351.628906 172.3125 352.136719 171.28125 C 352.617188 170.238281 353.089844 172.351562 353.503906 169.816406 C 353.90625 167.605469 353.648438 166.789062 354.777344 167.152344 C 355.867188 167.371094 356.789062 167.957031 356.457031 169.019531 C 356.132812 170.21875 356.625 171.367188 356.0625 171.75 C 355.476562 172.144531 356.367188 174.632812 355.925781 175.320312 C 355.484375 175.871094 355.535156 176.703125 355.839844 176.863281 C 356.113281 176.832031 356.964844 177.636719 357.144531 178.472656 C 357.320312 179.320312 356.535156 178.324219 356.535156 181.371094 C 356.515625 184.390625 356.417969 184.09375 355.957031 186.945312 C 355.457031 189.628906 355.996094 190.460938 355.074219 190.277344 C 354.128906 190.089844 354.511719 188.753906 352.875 189.085938 C 351.167969 189.371094 351.863281 189.882812 350.792969 189.027344 C 349.664062 188.203125 350.242188 186.914062 349.332031 185.804688 C 348.390625 184.839844 347.546875 184.359375 347.386719 182.285156 C 347.230469 180.191406 346.722656 180.703125 347.96875 177.472656 Z M 357.398438 184.054688 C 358.035156 182.167969 356.867188 181.6875 358.351562 180.300781 C 359.765625 179.035156 358.761719 178.71875 359.863281 178.511719 C 360.863281 178.121094 360.910156 176.203125 361.558594 176.683594 C 362.1875 177.019531 362.726562 177.324219 361.785156 179.476562 C 360.785156 181.597656 360.597656 178.296875 359.851562 179.878906 C 359.058594 181.292969 358.851562 182.847656 359.519531 182.324219 C 360.214844 181.785156 360.726562 180.546875 360.980469 181.746094 C 361.246094 182.953125 361.570312 183.828125 360.84375 184.351562 C 360.085938 184.890625 359.871094 184.546875 360.15625 185.382812 C 360.441406 186.433594 360.941406 184.714844 361.15625 186.757812 C 361.382812 188.859375 361.570312 189.039062 361.1875 189.546875 C 360.792969 190.214844 360.726562 189.363281 359.871094 187.820312 C 358.980469 186.097656 358.476562 185.921875 358.742188 187.621094 C 359.007812 189.164062 359.183594 189.507812 359.078125 191.386719 C 358.96875 193.273438 359.214844 193.117188 358.496094 193.261719 C 357.792969 193.214844 356.957031 193.046875 357.398438 192.191406 C 357.878906 191.355469 357.949219 191.535156 357.949219 190.355469 C 357.917969 188.988281 358.132812 188.8125 357.652344 187.445312 C 357.183594 186.078125 356.464844 186.433594 357.007812 185.085938 C 357.515625 183.898438 356.730469 184.230469 357.398438 184.054688 Z M 364.210938 173.519531 C 364.003906 173.019531 363.777344 172.5 363.453125 173.765625 C 363.148438 175.023438 363.277344 173.785156 363.335938 176.054688 C 363.394531 178.542969 363.894531 177.609375 363.769531 178.679688 C 363.691406 179.929688 363.453125 181.15625 363.855469 180.625 C 364.230469 180.066406 364.011719 180.261719 364.191406 179.035156 C 364.347656 177.597656 363.609375 176.234375 363.90625 175.484375 C 364.191406 174.945312 364.503906 175.464844 364.375 174.59375 C 364.238281 173.539062 364.210938 173.519531 364.210938 173.519531 Z M 364.691406 204.859375 L 364.660156 204.703125 C 364.535156 203.867188 364.179688 202.609375 364.835938 203.101562 C 364.796875 203.6875 364.738281 204.25 364.691406 204.859375 Z M 355.316406 247.054688 C 355.386719 246.625 355.398438 246.300781 355.277344 246.191406 C 354.90625 245.875 355.199219 244.097656 353.6875 246.367188 C 352.070312 248.765625 351.539062 248.382812 350.421875 249.445312 C 349.222656 250.660156 348.800781 250.484375 347.839844 251.96875 C 346.878906 253.441406 346.800781 252.851562 345.277344 254.800781 C 343.726562 256.734375 342.070312 258.996094 342.070312 258.996094 C 342.070312 258.996094 338.730469 262.277344 339.320312 259.191406 C 339.9375 255.949219 340.703125 257.402344 342.273438 253.867188 C 343.738281 250.476562 343.757812 250.476562 344.335938 248.363281 C 344.835938 246.386719 344.464844 241.082031 348.507812 233.820312 C 352.226562 226.65625 352.53125 229.160156 354.179688 226.941406 C 355.769531 224.835938 356.425781 223.757812 357.105469 221.613281 C 357.78125 219.433594 357.144531 217.210938 358.007812 216.328125 C 358.820312 215.414062 358.597656 218.371094 359.242188 216.542969 C 359.863281 214.714844 359.683594 214.695312 360.617188 213.417969 C 361.550781 211.972656 362.160156 212.425781 362.375 212.25 C 362.621094 211.925781 362.5625 214.097656 362.964844 212.523438 C 363.347656 210.972656 362.925781 209.839844 364.230469 207.875 L 364.394531 207.582031 C 362.875 221.152344 359.792969 234.390625 355.316406 247.054688 Z M 355.652344 150.140625 C 355.601562 150.183594 355.554688 150.25 355.484375 150.339844 C 355.503906 150.171875 355.535156 150.023438 355.652344 150.140625 Z M 355.296875 151.292969 C 355.515625 151.253906 356.261719 150.898438 356.632812 152.078125 C 356.976562 153.199219 357.339844 153.671875 357.574219 154.339844 C 357.800781 154.976562 357.957031 155.132812 358.214844 156.5 C 358.496094 158.023438 357.710938 157.996094 357.988281 158.820312 C 358.214844 159.476562 358.214844 158.425781 358.636719 159.398438 C 359.019531 160.390625 359.007812 160.589844 358.734375 160.960938 C 358.496094 161.53125 357.9375 161.257812 358.09375 162.789062 C 358.234375 164.34375 358.035156 164.203125 358.46875 164.648438 C 358.898438 164.941406 358.792969 166.011719 359.253906 165.582031 C 359.714844 165.179688 359.597656 166.414062 360.097656 166.003906 C 360.597656 165.621094 361.117188 165.199219 360.882812 164.34375 C 360.628906 163.507812 360.734375 161.914062 360.363281 160.882812 C 360.019531 160.078125 359.980469 160.253906 359.746094 159.597656 C 359.539062 159.085938 359.644531 160.105469 359.722656 158.171875 C 359.804688 156.414062 360.046875 156.714844 359.527344 155.539062 C 358.988281 154.25 359.019531 154.949219 358.839844 153.917969 C 358.625 152.902344 358.605469 153.0625 358.351562 152.589844 C 358.09375 152.117188 358.339844 151.890625 357.871094 151.625 C 357.339844 151.351562 357.417969 151.527344 357.046875 151.273438 C 356.683594 151.15625 356.464844 150.507812 356.464844 150.507812 C 356.464844 150.507812 356.398438 150.417969 356.289062 150.328125 C 356.300781 149.839844 356.113281 149.03125 355.738281 148.550781 C 355.035156 147.648438 354.75 147.183594 354.550781 147.941406 C 354.367188 148.699219 354.03125 148.589844 353.785156 148.117188 C 353.570312 147.625 353.121094 147.046875 353.382812 146.644531 C 353.609375 146.0625 353.660156 145.355469 353.402344 144.53125 C 353.089844 143.546875 353.128906 143.894531 352.902344 142.898438 C 352.648438 141.742188 352.6875 140.304688 351.472656 140.296875 C 351.472656 140.296875 350.96875 141.316406 351.382812 143.292969 C 351.832031 145.464844 350.746094 144 350.605469 145.25 C 350.441406 146.320312 350.265625 147.027344 350.949219 147.566406 C 351.648438 148.253906 351.804688 149.445312 352.304688 149.847656 C 352.816406 150.425781 352.746094 149.050781 353.375 149.089844 C 354.003906 149.296875 354.464844 148.816406 354.269531 149.9375 C 354.023438 151.027344 353.160156 151.046875 353.304688 151.863281 C 353.425781 152.699219 353.785156 152.097656 354.0625 152.609375 C 354.289062 152.882812 354.71875 154.359375 355.074219 153.757812 C 355.398438 153.179688 355.386719 152.835938 355.238281 152.175781 C 355.140625 151.675781 355.0625 150.507812 355.335938 150.898438 C 355.316406 150.996094 355.308594 151.125 355.296875 151.292969 Z M 356.121094 153.71875 C 356.121094 154.082031 356.328125 154.566406 356.042969 154.78125 C 355.738281 155.015625 355.996094 155.664062 355.699219 156.097656 C 355.386719 156.480469 355.898438 157.246094 355.984375 157.757812 C 356.074219 158.257812 356.484375 159.066406 356.652344 159.035156 C 356.820312 158.996094 357.007812 158.808594 357.144531 158.082031 C 357.28125 157.355469 357.410156 157.671875 357.203125 156.855469 C 357.015625 156 357.066406 155.988281 356.878906 155.3125 C 356.722656 154.652344 356.632812 154.851562 356.535156 154.546875 C 356.398438 154.035156 356.367188 153.328125 356.121094 153.71875 Z M 353.726562 154.546875 C 354.109375 154.484375 354.1875 155.144531 354.484375 155.605469 C 354.757812 155.910156 355.003906 156.550781 354.855469 157.445312 C 354.671875 158.320312 354.914062 159.144531 354.679688 159.339844 C 354.433594 159.566406 354.277344 159.921875 354.316406 160.609375 C 354.367188 161.277344 354.847656 163.25 354.699219 163.941406 C 354.53125 164.480469 354.257812 165.011719 353.984375 164.894531 C 353.6875 164.765625 353.355469 164.304688 353.316406 163.949219 C 353.277344 163.636719 353.042969 161.304688 353.542969 161.257812 C 354.003906 160.992188 353.265625 159.410156 353.550781 158.523438 C 353.816406 157.609375 353.53125 158.003906 353.765625 157.109375 C 354.042969 156.371094 353.070312 155.519531 353.726562 154.546875 Z M 336.316406 181.226562 C 336.121094 181.402344 335.511719 182.601562 334.421875 181.019531 C 333.304688 179.445312 333.667969 179.730469 332.214844 178.789062 C 330.734375 177.707031 330.429688 177.433594 329.96875 176.480469 C 329.515625 175.515625 329.191406 175.113281 329.96875 174.03125 C 330.753906 173.117188 331.488281 172.765625 332.792969 174.957031 C 334.039062 177.078125 334.472656 177.195312 335.101562 177.765625 C 335.699219 178.148438 335.71875 180.085938 336.652344 180.351562 C 337.582031 180.585938 338.085938 181.796875 339.144531 182.039062 C 340.175781 182.324219 340.773438 181.234375 341.628906 183.054688 C 342.453125 184.878906 341.449219 186.285156 342.136719 187.199219 C 342.796875 188.125 341.992188 188.429688 343.226562 188.613281 C 344.425781 188.9375 343.089844 193.097656 343.953125 193.605469 C 344.808594 193.949219 345.375 193.980469 344.621094 194.597656 C 343.875 195.167969 344.628906 195.699219 343.285156 195.925781 C 341.902344 196.140625 341.773438 195.996094 341.195312 194.421875 C 340.605469 192.839844 340.371094 193.605469 339.457031 191.296875 C 338.496094 188.839844 338.210938 190.648438 337.820312 187.640625 C 337.417969 184.488281 336.964844 183.90625 336.75 183.023438 C 336.542969 181.980469 336.90625 181.226562 336.316406 181.226562 Z M 343.679688 188.28125 C 343.992188 188.144531 344.304688 188.46875 344.492188 187.0625 C 344.667969 185.636719 344.769531 186.117188 345.230469 186.265625 C 345.660156 186.582031 345.886719 186.296875 346.289062 187.386719 C 346.679688 188.496094 346.59375 188.496094 346.484375 189.292969 C 346.367188 189.921875 346.445312 190.550781 345.691406 190.375 C 344.886719 190.039062 344.679688 189.117188 344.226562 189.097656 C 343.816406 188.9375 343.207031 188.300781 343.679688 188.28125 Z M 348.222656 188.507812 C 348.132812 188.527344 348.007812 189.15625 347.722656 189.304688 C 347.425781 189.292969 346.671875 188.96875 347.171875 189.921875 C 347.664062 191.050781 347.125 191.691406 347.761719 191.386719 C 348.429688 191.089844 348.476562 190.601562 348.476562 190.601562 C 348.476562 190.601562 348.898438 189.195312 348.222656 188.507812 Z M 353.070312 200.191406 C 352.335938 200.28125 352.1875 200.761719 351.460938 200.042969 C 350.707031 199.304688 351.570312 198.894531 349.910156 198.441406 C 348.183594 197.84375 348.671875 198.027344 347.671875 197.144531 C 346.652344 196.28125 346.113281 194.34375 345.132812 196.664062 C 344.160156 198.972656 343.453125 198.285156 344.90625 199.964844 C 346.328125 201.539062 346.761719 200.761719 348.390625 201.390625 C 349.949219 202.046875 349.488281 204.113281 350.902344 203.445312 C 352.246094 202.902344 353.667969 202.550781 353.070312 200.191406 Z M 354.492188 201.46875 C 354.777344 200.988281 355.09375 199.328125 355.71875 199.550781 C 356.367188 199.769531 357.632812 199.710938 356.820312 200.652344 C 356.003906 201.597656 355.976562 202.265625 355.730469 202.746094 C 355.464844 203.238281 354.40625 203.148438 354.492188 201.46875 Z M 358.878906 198.414062 C 358.722656 198.578125 358.457031 198.382812 358.066406 199.550781 C 357.613281 200.890625 357.429688 200.359375 357.574219 201.066406 C 357.710938 201.753906 357.878906 202.796875 358.242188 202.136719 C 358.585938 201.488281 358.960938 201.351562 359.027344 200.300781 C 359.097656 199.316406 359.617188 197.605469 358.878906 198.414062 Z M 362.050781 197.410156 C 362.402344 197.617188 362.296875 198.148438 361.589844 199.472656 C 360.851562 200.632812 361.207031 199.976562 360.628906 199.925781 C 360.027344 199.71875 360.085938 200.21875 359.832031 199.542969 C 359.566406 198.804688 359.980469 199.023438 360.34375 198.007812 C 360.695312 196.988281 360.882812 197.507812 361.316406 197.027344 C 361.738281 196.535156 361.667969 197.371094 362.050781 197.410156 Z M 363.621094 198.027344 C 363.414062 198.894531 362.914062 199.226562 362.570312 199.71875 C 362.1875 200.386719 361.757812 201.054688 361.726562 201.410156 C 361.667969 201.929688 361.382812 202.953125 361.757812 202.992188 C 362.128906 202.855469 361.933594 202.5 362.335938 202.519531 C 362.738281 202.382812 362.777344 203.101562 363.089844 202.058594 C 363.375 201.027344 363.265625 201.015625 363.550781 200.839844 C 363.847656 200.542969 363.984375 200.199219 363.847656 199.816406 C 363.757812 199.304688 363.492188 199.808594 363.699219 198.941406 C 363.90625 198.246094 363.710938 198.058594 363.621094 198.027344 Z M 190.910156 38.910156 C 191.785156 38.726562 192.550781 38.902344 192.648438 39.316406 C 192.746094 39.765625 192.109375 40.257812 191.214844 40.492188 C 190.320312 40.699219 189.507812 40.53125 189.410156 40.101562 C 189.300781 39.679688 189.890625 39.1875 190.753906 38.96875 C 190.785156 38.941406 190.804688 38.941406 190.832031 38.929688 C 190.871094 38.921875 190.890625 38.921875 190.910156 38.910156 Z M 180.125 45.179688 C 180.96875 44.996094 181.734375 45.152344 181.84375 45.574219 C 181.941406 45.996094 181.292969 46.546875 180.398438 46.753906 C 179.496094 46.960938 178.691406 46.78125 178.585938 46.371094 C 178.476562 45.949219 179.085938 45.445312 179.9375 45.21875 C 179.96875 45.21875 179.988281 45.210938 180.035156 45.199219 C 180.046875 45.199219 180.085938 45.191406 180.125 45.179688 Z M 38.753906 89.617188 C 40.480469 88.863281 41.695312 87.300781 42.394531 86.757812 C 43.101562 86.167969 47.449219 83.457031 47.449219 83.457031 C 47.449219 83.457031 48.054688 82.582031 48.488281 82.03125 C 48.917969 81.492188 49.078125 81.195312 49.753906 80.382812 C 50.441406 79.585938 52.667969 77.148438 52.902344 77.777344 C 53.167969 78.40625 51.914062 80.058594 51.234375 80.636719 C 50.558594 81.214844 50.15625 82.210938 50.929688 81.71875 C 51.816406 81.089844 53.375 79.917969 54.191406 79.671875 C 55.121094 79.320312 54.492188 79.703125 53.445312 81.039062 C 52.414062 82.425781 50.929688 83.023438 50.058594 84.292969 C 49.097656 85.71875 48.917969 85.785156 47.871094 86.316406 C 46.730469 86.984375 45.976562 86.453125 45.042969 87.082031 C 44.21875 87.59375 42.511719 88.742188 43.21875 88.804688 C 43.945312 88.882812 45.464844 87.800781 45.867188 88.292969 C 46.289062 88.773438 46.320312 88.824219 45.179688 89.707031 C 44.050781 90.609375 44.699219 90 43.757812 90 C 42.875 90.03125 41.46875 90.570312 40.292969 91.910156 C 39.136719 93.246094 34.199219 100.773438 32.421875 103.023438 C 30.792969 105.144531 32.011719 107.5625 32.855469 107.003906 C 33.679688 106.453125 34.648438 104.988281 35.082031 105.625 C 35.613281 106.097656 34.726562 107.582031 36.003906 106.304688 C 37.386719 104.910156 36.898438 105.222656 38.390625 103.289062 C 39.988281 101.253906 39.566406 101.609375 40.863281 99.386719 C 42.15625 97.175781 41.960938 96.636719 43.019531 95.691406 C 44.089844 94.75 44.894531 93.628906 45.699219 92.320312 C 46.515625 91.023438 47.417969 89.765625 48.890625 89.136719 C 50.480469 88.390625 50.980469 88.546875 50.714844 90.207031 C 50.5 91.898438 49.605469 93.105469 50.765625 92.683594 C 52.050781 92.152344 51.414062 91.710938 52.179688 90.011719 C 52.953125 88.300781 52.921875 88.066406 53.71875 87.613281 C 54.601562 87.035156 54.394531 89.757812 53.886719 91.015625 C 53.265625 92.378906 53.433594 93.3125 53.953125 93.472656 C 54.367188 93.753906 55.015625 94.382812 53.984375 96.046875 C 52.875 97.84375 50.570312 98.097656 51.421875 98.828125 C 52.277344 99.574219 53.660156 98.355469 53.425781 99.5625 C 53.109375 100.871094 52.402344 101.753906 50.921875 103.101562 C 49.410156 104.449219 46.457031 107.21875 45.160156 107.226562 C 43.964844 107.140625 43.542969 107.089844 43.082031 107.238281 C 42.550781 107.511719 41.207031 107.710938 41.007812 108.378906 C 40.753906 109.175781 39.273438 112.359375 38.476562 113.84375 C 37.644531 115.445312 33.421875 118.875 33.019531 119.621094 C 32.648438 120.386719 32.226562 121.105469 33.285156 120.464844 C 34.445312 119.679688 34.089844 121.535156 35.210938 120.761719 C 36.367188 119.972656 32.53125 124.160156 31.863281 125.703125 C 31.253906 127.089844 31.183594 128.484375 30.417969 128.925781 C 29.714844 129.203125 28.9375 129.09375 27.996094 131.285156 C 26.996094 133.632812 26.0625 137.09375 25.023438 139.253906 C 24.039062 141.269531 23.058594 141.878906 22.804688 143.953125 C 22.539062 146.152344 22.527344 146.515625 21.988281 146.753906 C 21.449219 146.957031 20.722656 149.445312 19.328125 149.660156 C 18.015625 149.898438 16.992188 152.902344 16.308594 154.742188 C 15.667969 156.578125 15.628906 159.578125 15.550781 162.03125 C 15.492188 164.5 15.050781 164.441406 14.960938 164.773438 C 14.894531 165.136719 14.746094 166.152344 14.539062 166.503906 C 14.34375 166.652344 13.953125 167.125 13.84375 167.488281 C 13.734375 167.632812 13.324219 167.59375 13.449219 166.730469 C 13.558594 166.042969 13.285156 166.335938 13.460938 165.304688 C 13.589844 164.441406 13.34375 165.296875 13.792969 163.929688 C 14.234375 162.582031 14.039062 163.242188 14.234375 162.199219 C 14.433594 161.1875 14.589844 158.867188 14.265625 158.828125 C 13.980469 158.613281 13.246094 159.222656 12.910156 159.332031 C 12.597656 159.476562 12.410156 158.710938 12.410156 158.710938 C 12.410156 158.710938 11.910156 158.652344 11.644531 159.3125 C 15.679688 134.195312 25.03125 110.460938 38.753906 89.617188 " fill-opacity="1" fill-rule="evenodd"/></svg>